<svg version="1.1" xmlns="http://www.w3.org/2000/svg" preserveAspectRatio="xMidYMid meet" space="preserve" viewBox="0 0 50 50" width="26" height="24"><path fill="#FFF" d="M13.8,41.7H5.4V13.6h8.4C13.8,13.6,13.8,41.7,13.8,41.7z M44.7,41.7h-8.4v-15c0-3.9-1.4-5.9-4.2-5.9c-2.2,0-3.6,1.1-4.3,3.3c0,3.5,0,17.6,0,17.6h-8.4c0,0,0.1-25.3,0-28.1h6.7l0.5,5.6h0.2c1.7-2.8,4.5-4.7,8.3-4.7c2.9,0,5.2,0.8,7,2.8s2.7,4.7,2.7,8.5L44.7,41.7L44.7,41.7z M9.6,2.3C12,2.3,14,4.2,14,6.5s-2,4.2-4.4,4.2S5.2,8.8,5.2,6.5C5.3,4.2,7.2,2.3,9.6,2.3z"></path></svg>